<svg xmlns="http://www.w3.org/2000/svg" viewBox="0 0 424.5 73" width="145px" height="25px"><path d="M18.37 69.21c-11.46 0-14.72-9.61-14.72-19.48h10.23c0 2.73.35 9.78 4.94 9.78 3.44 0 5.2-3.09 5.2-6.08 0-11.11-20.89-14.02-20.89-32.44 0-9.17 4.94-17.19 14.81-17.19 11.37 0 14.46 9.61 14.63 19.22H22.34c0-2.73-.26-9.52-4.67-9.52-3.17 0-4.32 3.08-4.32 5.73 0 10.58 20.89 14.55 20.89 32.62 0 9.69-5.65 17.36-15.87 17.36zm20.19-1.24V5.03h26v9.7H50.02v16.13h10.75v10.23H50.02v17.19h15.16v9.7H38.56zm31.2 0V5.03h11.46v53.24h14.72v9.7H69.76zm41.34-53.24v16.84h10.49V41.8H111.1v26.18H99.64V5.03h25.65v9.7H111.1zm38.44 53.24l-5.38-27.06h-2.73v27.06h-11.55V5.03h12.96c11.99 0 18.16 5.64 18.16 17.89 0 5.55-1.5 12.25-6.7 15.34l6.79 29.71h-11.55zm-6.35-53.77h-1.76v17.54h2.29c4.58 0 5.82-5.02 5.82-8.73 0-4.49-.97-8.81-6.35-8.81zm23.18 53.77V5.03h11.55v62.94h-11.55zm29.97 0h-11.81V5.03h9.96c20.63 0 21.16 15.25 21.16 31.47 0 14.64 0 31.47-19.31 31.47zm-.35-9.69c8.9 0 7.67-9.61 7.67-20.63 0-9.7 2.38-22.92-7.67-22.92v43.55zm55.8 9.69h-4.85l-1.59-4.14c-2.03 3-5.38 5.38-9.17 5.38-15.87 0-16.31-20.89-16.31-32.26 0-10.75 1.59-33.14 16.31-33.14 14.37 0 15.16 12.52 15.16 23.71h-10.31l.09-3.97c0-2.73-.35-10.05-4.32-10.05-5.55 0-4.94 19.22-4.94 23.54 0 9.34-.62 22.48 5.46 22.48 4.94 0 4.76-8.46 4.67-11.72h-4.23v-9.17h14.02v29.34zm6.08 0V5.03h26v9.7h-14.55v16.13H280v10.23h-10.67v17.19h15.16v9.7h-26.62zm43.55 1.24c-11.46 0-14.81-9.61-14.72-19.48h10.23c0 3.44.35 9.78 4.94 9.78 3.44 0 5.11-3.09 5.11-6.08 0-11.11-20.8-14.02-20.8-32.44 0-9.17 4.94-17.19 14.81-17.19 11.37 0 14.37 9.61 14.63 19.22H305.3c0-2.29.44-9.52-4.58-9.52-3.17 0-4.32 3.08-4.32 5.73 0 10.58 20.89 14.55 20.89 32.62 0 9.69-5.65 17.36-15.87 17.36zm56.77-1.24c-4.85 0-8.64-1.32-11.72-4.58-2.91 3.44-7.14 5.82-11.9 5.82-9.78 0-14.19-8.81-14.19-15.87 0-7.32 3.7-13.66 9.17-19.75-2.64-5.47-4.76-10.14-4.76-16.4 0-8.11 5.55-13.4 13.4-13.4 8.11 0 12.52 6.61 12.52 13.13 0 8.11-3.88 11.37-8.55 16.84 1.15 3.17 2.91 6.08 4.5 9.08.88-3 1.41-5.91 1.76-8.99l8.81 1.94c-.79 6.08-2.12 12.16-4.76 17.81 1.59 2.47 3.53 3.53 6.43 4.14v10.23h-.71zm-.71-9.08c-3.08-.79-5.02-2.56-6.52-5.2 2.47-5.38 3.88-11.02 4.76-16.84l-6.08-1.32c-.53 3.79-1.5 7.32-2.64 10.84-2.2-4.23-4.85-8.29-6.44-12.87 4.58-5.38 8.73-8.64 8.73-16.57 0-5.91-3.97-11.72-11.11-11.72-7.14 0-11.99 4.67-11.99 11.99 0 6.35 2.29 11.02 4.94 16.66-4.94 5.47-9.34 11.72-9.34 19.48 0 6.7 4.05 14.46 12.78 14.46 5.11 0 8.9-2.73 11.81-6.61 3.17 3.7 6.17 5.29 11.11 5.38v-7.68zm-15.07-2.91c-1.15 1.76-3 3.7-5.38 3.7-4.41 0-6.61-6.08-6.61-9.7 0-3.88 1.41-6.08 3.97-8.73l8.02 14.73zm-10.58-5.99c0 3.7 1.67 8.29 5.38 8.29 1.94 0 2.73-1.41 3.53-2.47l-6.61-12.25c-1.51 1.76-2.3 3.78-2.3 6.43zm6.26-37.91c3.17 0 4.05 2.91 4.05 5.64 0 4.14-2.47 7.05-4.76 10.14-1.41-3.26-3.09-7.14-3.09-10.67.01-2.28.8-5.11 3.8-5.11zm2.73 5.65c0-2.64-.88-4.23-2.73-4.23-1.67 0-2.38 1.5-2.38 3.7 0 2.38.97 5.55 1.94 8.02 1.67-2.2 3.17-4.58 3.17-7.49zm39.49 10.05c0-2.03.35-13.13-3.44-13.13-4.58 0-4.06 19.22-4.06 21.24 0 19.22 1.67 22.48 3.88 22.48 4.58 0 4.32-11.55 4.32-14.46h10.84v.7c.09 10.14-1.15 24.59-15.34 24.59-16.48 0-16.66-22.65-16.66-33.32 0-9.87 1.41-32.09 16.66-32.09 14.19 0 15.25 13.84 15.16 23.98v.71H380.3v-.7zm10.05-.71c-.09-10.31-1.5-21.86-13.84-21.86-13.58 0-15.25 20.1-15.25 30.68 0 11.46.44 31.91 15.25 31.91 12.34 0 13.93-12.16 14.02-22.48h-8.11c-.09 3.7-.09 14.37-5.73 14.37-3.88 0-5.29-5.91-5.29-23.8 0-4.41-.53-22.57 5.47-22.57 5.11 0 4.85 10.75 4.85 13.75h8.63zm17.19-23.1c10.84 0 12.78 10.84 12.78 19.48 0 8.55-1.94 19.39-12.78 19.39S394.77 32 394.77 23.45c0-8.63 1.94-19.48 12.78-19.48zm2.29 51.4c-4.05 0-5.82-3.53-8.82-3.53-1.59 0-3 .97-4.05 2.29l-1.76-2.56c2.29-3.61 5.46-6.7 9.52-6.7 4.05 0 5.73 3.53 8.81 3.53 1.59 0 2.91-.97 3.97-2.29l1.76 2.56c-2.2 3.52-5.46 6.7-9.43 6.7zm-2.29-13.93c9.87 0 11.37-10.31 11.37-17.98 0-7.76-1.5-18.07-11.37-18.07-9.96 0-11.37 10.31-11.37 18.07 0 7.66 1.41 17.98 11.37 17.98zm9.87 6.61c-1.06 1.06-2.47 1.76-3.88 1.76-3.53 0-5.11-3.53-8.81-3.53-3.26 0-6.08 2.38-8.02 5.29l.35.62c1.06-1.06 2.47-1.76 3.97-1.76 3.44 0 5.11 3.53 8.82 3.53 3.26 0 6.08-2.47 7.93-5.29l-.36-.62zm-6.43-24.59c0 11.28-1.23 13.05-3.44 13.05-1.94 0-3.44-1.76-3.44-13.05 0-5.29.18-8.55.62-10.49.62-2.29 1.76-2.64 2.82-2.64 2.38-.01 3.44 2.9 3.44 13.13zm-3.44 11.63c1.06 0 2.03-1.15 2.03-11.64 0-3.61-.09-11.72-2.03-11.72-1.85 0-2.03 4.06-2.03 11.72 0 9.79.97 11.64 2.03 11.64z" fill="#202020"/></svg>